<?xml version="1.0" encoding="iso-8859-1"?>
<!-- Generator: Adobe Illustrator 19.0.0, SVG Export Plug-In . SVG Version: 6.00 Build 0)  -->
<svg version="1.1" id="Capa_1" xmlns="http://www.w3.org/2000/svg" xmlns:xlink="http://www.w3.org/1999/xlink" x="0px" y="0px"
	 viewBox="0 0 511.998 511.998" style="enable-background:new 0 0 511.998 511.998;" xml:space="preserve">
<g>
	<g>
		<path d="M287.141,35.599h-37.534c-4.144,0-7.502,3.358-7.502,7.502c0,4.144,3.358,7.502,7.502,7.502h37.534
			c4.144,0,7.502-3.358,7.502-7.502C294.643,38.958,291.285,35.599,287.141,35.599z"/>
	</g>
</g>
<g>
	<g>
		<path d="M227.806,35.599h-13.461c-4.144,0-7.502,3.358-7.502,7.502c0,4.144,3.358,7.502,7.502,7.502h13.461
			c4.144,0,7.502-3.358,7.502-7.502C235.308,38.958,231.95,35.599,227.806,35.599z"/>
	</g>
</g>
<g>
	<g>
		<path d="M250.743,429.451c-16.06,0-29.126,13.066-29.126,29.126c0,16.061,13.066,29.126,29.126,29.126
			c16.061,0,29.126-13.065,29.126-29.126C279.868,442.516,266.804,429.451,250.743,429.451z M250.744,472.697
			c-7.786,0-14.121-6.335-14.121-14.121c0-7.786,6.335-14.121,14.121-14.121c7.786,0,14.121,6.335,14.121,14.121
			C264.865,466.363,258.53,472.697,250.744,472.697z"/>
	</g>
</g>
<g>
	<g>
		<path d="M356.53,288.955h-30.959c-4.144,0-7.502,3.358-7.502,7.502s3.358,7.502,7.502,7.502h30.959
			c4.144,0,7.502-3.359,7.502-7.502C364.032,292.313,360.674,288.955,356.53,288.955z"/>
	</g>
</g>
<g>
	<g>
		<path d="M438.598,288.955h-58.349c-4.143,0-7.502,3.359-7.502,7.502c0,4.143,3.358,7.502,7.502,7.502h58.349
			c4.143,0,7.502-3.359,7.502-7.502C446.101,292.313,442.742,288.955,438.598,288.955z"/>
	</g>
</g>
<g>
	<g>
		<path d="M438.598,321.655h-30.96c-4.144,0-7.502,3.358-7.502,7.502s3.358,7.502,7.502,7.502h30.96
			c4.143,0,7.502-3.358,7.502-7.502S442.743,321.655,438.598,321.655z"/>
	</g>
</g>
<g>
	<g>
		<path d="M383.919,321.655h-58.348c-4.144,0-7.502,3.358-7.502,7.502s3.358,7.502,7.502,7.502h58.348
			c4.144,0,7.502-3.358,7.502-7.502S388.063,321.655,383.919,321.655z"/>
	</g>
</g>
<g>
	<g>
		<path d="M465.366,251.412h-70.509v-41.84c3.731-5.011,5.942-11.218,5.942-17.932s-2.212-12.92-5.942-17.932v-4.6l42.116-50.561
			c3.019,1.02,6.247,1.581,9.606,1.581c16.594,0,30.094-13.5,30.094-30.094c0-16.594-13.5-30.094-30.094-30.094
			c-16.594,0-30.094,13.5-30.094,30.094c0,7.789,2.975,14.895,7.847,20.245l-29.476,35.385V42.424
			C394.857,19.032,375.825,0,352.433,0H149.054c-23.393,0-42.425,19.032-42.425,42.424v55.196c0,4.144,3.358,7.502,7.502,7.502
			c4.144,0,7.502-3.358,7.502-7.502V42.424c0-15.119,12.301-27.42,27.42-27.42h203.379c15.119,0,27.42,12.301,27.42,27.42v120.547
			c-2.886-0.923-5.959-1.425-9.148-1.425c-2.74,0-5.393,0.375-7.916,1.064V77.416c0-4.144-3.358-7.502-7.502-7.502H146.2
			c-4.144,0-7.502,3.358-7.502,7.502v74.429c-0.102,0.495-0.155,1.002-0.155,1.515v17.49c-0.319,0.014-0.637,0.044-0.956,0.061
			c-0.821,0.043-1.641,0.095-2.458,0.156c-0.505,0.038-1.01,0.077-1.514,0.122c-1.049,0.094-2.096,0.2-3.136,0.324
			c-0.475,0.057-0.947,0.123-1.421,0.186c-0.744,0.099-1.485,0.205-2.225,0.318c-0.491,0.076-0.982,0.147-1.472,0.229
			c-0.988,0.166-1.972,0.349-2.951,0.542c-0.258,0.05-0.518,0.09-0.775,0.142V127.63c0-4.144-3.358-7.502-7.502-7.502
			s-7.502,3.358-7.502,7.502v49.549c-41.541,15.053-71.305,54.895-71.305,101.569c0,46.675,29.763,86.525,71.305,101.579v89.247
			c0,23.393,19.032,42.424,42.425,42.424h203.379c23.393,0,42.424-19.032,42.424-42.424v-25.11c0-4.144-3.358-7.502-7.502-7.502
			c-4.143,0-7.502,3.358-7.502,7.502v25.11c0,15.119-12.301,27.42-27.42,27.42H149.054c-15.12,0-27.42-12.301-27.42-27.42v-85.01
			c1.539,0.314,3.086,0.588,4.638,0.835c0.22,0.035,0.438,0.075,0.659,0.109c0.485,0.074,0.972,0.137,1.459,0.205
			c0.419,0.058,0.836,0.121,1.256,0.175c0.382,0.048,0.764,0.087,1.147,0.131c0.524,0.061,1.046,0.125,1.572,0.179
			c0.343,0.035,0.688,0.06,1.031,0.092c0.564,0.052,1.127,0.106,1.693,0.149c0.367,0.028,0.735,0.046,1.102,0.07
			c0.542,0.036,1.084,0.075,1.629,0.102c0.291,0.015,0.582,0.021,0.873,0.034v26.484c0,4.144,3.358,7.502,7.502,7.502h209.087
			c4.144,0,7.502-3.358,7.502-7.502v-38.155h17.064v39.482c0,4.144,3.359,7.502,7.502,7.502c4.144,0,7.502-3.358,7.502-7.502
			v-39.482h70.509c4.144,0,7.502-3.358,7.502-7.502V258.914C472.868,254.77,469.51,251.412,465.366,251.412z M446.58,74.944
			c8.32,0,15.089,6.769,15.089,15.089c0,8.32-6.769,15.089-15.089,15.089c-8.32,0-15.089-6.769-15.089-15.089
			C431.49,81.712,438.258,74.944,446.58,74.944z M358.078,183.406c0.052-0.08,0.099-0.162,0.153-0.241
			c0.183-0.269,0.384-0.524,0.583-0.779c0.117-0.15,0.23-0.303,0.353-0.449c0.17-0.202,0.351-0.392,0.531-0.585
			c0.172-0.183,0.343-0.366,0.524-0.542c2.717-2.631,6.411-4.259,10.483-4.259c8.321,0,15.089,6.769,15.089,15.089
			s-6.769,15.089-15.089,15.089c-4.072,0-7.766-1.629-10.483-4.259c-0.181-0.175-0.35-0.357-0.521-0.538
			c-0.182-0.194-0.365-0.387-0.536-0.59c-0.121-0.143-0.231-0.292-0.346-0.439c-0.202-0.259-0.405-0.517-0.591-0.789
			c-0.051-0.074-0.095-0.153-0.144-0.228c-1.554-2.373-2.467-5.203-2.467-8.244C355.617,188.603,356.527,185.777,358.078,183.406z
			 M379.853,220.308v31.104h-17.064v-30.743c2.524,0.689,5.177,1.064,7.916,1.064C373.894,221.733,376.966,221.23,379.853,220.308z
			 M153.698,84.918h0.004h194.082v87.233c-0.088,0.104-0.171,0.212-0.258,0.317c-0.035,0.042-0.069,0.086-0.104,0.129
			c-0.108,0.132-0.217,0.264-0.322,0.398l-39.939-22.494c1.369-3.437,2.131-7.18,2.131-11.099c0-16.595-13.5-30.095-30.094-30.095
			s-30.094,13.5-30.094,30.095c0,7.676,2.893,14.686,7.64,20.008l-21.549,28.469c-2.692-2.879-5.506-5.65-8.453-8.289
			c-0.072-0.065-0.142-0.133-0.215-0.198c-1.001-0.893-2.022-1.766-3.052-2.63c-0.139-0.117-0.274-0.24-0.414-0.356
			c-0.99-0.824-2-1.627-3.016-2.425c-0.187-0.147-0.368-0.301-0.556-0.447c-0.976-0.757-1.972-1.493-2.97-2.226
			c-0.234-0.171-0.46-0.351-0.695-0.52c-0.004-0.003-0.008-0.006-0.013-0.009c-0.017-0.012-0.034-0.026-0.051-0.038
			c-0.248-0.179-0.503-0.346-0.753-0.523c-0.949-0.676-1.903-1.345-2.868-1.995c-0.485-0.326-0.979-0.638-1.467-0.958
			c-0.756-0.494-1.51-0.989-2.276-1.467c-0.551-0.344-1.108-0.676-1.664-1.012c-0.714-0.432-1.429-0.863-2.151-1.282
			c-0.585-0.339-1.175-0.669-1.766-0.998c-0.704-0.394-1.41-0.784-2.121-1.165c-0.607-0.325-1.217-0.643-1.829-0.959
			c-0.706-0.364-1.415-0.722-2.129-1.074c-0.62-0.306-1.241-0.608-1.866-0.904c-0.717-0.34-1.438-0.67-2.161-0.997
			c-0.628-0.284-1.255-0.568-1.889-0.842c-0.735-0.319-1.475-0.624-2.217-0.93c-0.626-0.258-1.25-0.52-1.881-0.768
			c-0.775-0.306-1.556-0.595-2.338-0.886c-0.602-0.225-1.202-0.457-1.809-0.673c-0.9-0.321-1.807-0.62-2.714-0.921
			c-0.494-0.164-0.984-0.34-1.48-0.498c-1.372-0.438-2.753-0.852-4.14-1.246c-0.559-0.159-1.124-0.299-1.687-0.451
			c-0.866-0.233-1.732-0.469-2.603-0.685c-0.634-0.157-1.271-0.298-1.909-0.446c-0.805-0.187-1.61-0.375-2.42-0.547
			c-0.664-0.141-1.331-0.269-1.999-0.4c-0.789-0.155-1.579-0.308-2.373-0.449c-0.677-0.12-1.355-0.231-2.036-0.341
			c-0.791-0.128-1.584-0.251-2.379-0.365c-0.68-0.097-1.362-0.189-2.045-0.276c-0.367-0.047-0.732-0.105-1.1-0.149V84.918z
			 M294.288,139.401c0,8.32-6.769,15.089-15.089,15.089c-8.321,0-15.089-6.768-15.089-15.089c0-8.32,6.769-15.09,15.089-15.09
			S294.288,131.081,294.288,139.401z M145.989,371.698c-0.013,0-0.026,0.003-0.039,0.003c-0.872,0.024-1.745,0.045-2.623,0.045
			c-1.025,0-2.048-0.023-3.07-0.056c-0.272-0.009-0.543-0.02-0.814-0.031c-0.877-0.036-1.754-0.083-2.629-0.144
			c-0.156-0.011-0.313-0.018-0.469-0.03c-1-0.074-1.997-0.168-2.993-0.275c-0.27-0.029-0.539-0.061-0.808-0.093
			c-0.791-0.092-1.58-0.194-2.368-0.305c-0.253-0.036-0.507-0.069-0.759-0.107c-0.94-0.141-1.879-0.299-2.814-0.469
			c-0.335-0.061-0.668-0.128-1.001-0.192c-0.643-0.124-1.284-0.256-1.925-0.394c-0.386-0.083-0.773-0.164-1.158-0.253
			c-0.827-0.189-1.651-0.391-2.474-0.603c-0.497-0.129-0.991-0.266-1.485-0.403c-0.396-0.109-0.791-0.221-1.186-0.336
			c-38.689-11.258-67.045-47.03-67.045-89.305c0-42.406,28.531-78.267,67.404-89.411c0.357-0.102,0.715-0.206,1.073-0.304
			c0.504-0.138,1.009-0.271,1.516-0.401c0.581-0.148,1.163-0.289,1.747-0.425c0.542-0.127,1.086-0.249,1.633-0.367
			c0.655-0.141,1.312-0.277,1.972-0.404c0.358-0.069,0.717-0.137,1.077-0.202c0.919-0.165,1.84-0.322,2.764-0.46
			c0.188-0.028,0.378-0.051,0.567-0.078c0.83-0.118,1.661-0.226,2.496-0.322c0.273-0.032,0.547-0.063,0.821-0.093
			c0.987-0.105,1.977-0.199,2.968-0.272c0.129-0.01,0.259-0.015,0.389-0.024c0.594-0.042,1.19-0.064,1.787-0.095v88.329
			c0,2.618,1.364,5.047,3.601,6.408l79.414,48.356c-5.128,7.959-11.44,15.087-18.681,21.139c-0.106,0.089-0.211,0.178-0.318,0.266
			c-0.51,0.422-1.028,0.834-1.546,1.246c-0.328,0.259-0.656,0.52-0.988,0.775c-0.334,0.258-0.673,0.511-1.011,0.765
			c-0.545,0.407-1.092,0.812-1.646,1.207c-0.155,0.111-0.311,0.221-0.466,0.331C182.173,365.087,164.512,371.177,145.989,371.698z
			 M347.786,405.627h-0.001H153.702v-19.373c0.013-0.001,0.025-0.003,0.038-0.004c0.854-0.082,1.703-0.183,2.551-0.285
			c0.286-0.034,0.574-0.062,0.86-0.098c0.872-0.112,1.74-0.242,2.606-0.375c0.262-0.04,0.526-0.074,0.788-0.116
			c0.841-0.135,1.677-0.288,2.511-0.443c0.29-0.054,0.582-0.101,0.872-0.158c0.771-0.149,1.537-0.315,2.303-0.481
			c0.356-0.077,0.714-0.148,1.069-0.229c0.67-0.153,1.335-0.32,2.002-0.485c0.454-0.112,0.91-0.219,1.362-0.338
			c0.538-0.141,1.071-0.294,1.605-0.442c0.586-0.163,1.172-0.323,1.755-0.495c0.374-0.111,0.745-0.231,1.117-0.346
			c0.748-0.23,1.494-0.462,2.237-0.709c0.187-0.062,0.371-0.129,0.558-0.192c23.057-7.794,43.083-23.252,56.474-44.247l10.978,6.685
			c0.267,0.162,0.544,0.301,0.825,0.427c0.085,0.038,0.17,0.071,0.255,0.106c0.21,0.085,0.424,0.161,0.64,0.227
			c0.087,0.026,0.174,0.055,0.262,0.078c0.294,0.078,0.591,0.143,0.892,0.185c0.02,0.003,0.039,0.003,0.059,0.005
			c0.284,0.037,0.57,0.054,0.857,0.058c0.037,0.001,0.073,0.008,0.11,0.008c0.057,0,0.114-0.01,0.172-0.012
			c0.219-0.005,0.438-0.02,0.657-0.044c0.093-0.01,0.186-0.019,0.279-0.033c0.301-0.045,0.602-0.103,0.898-0.185
			c1.998-0.554,3.677-1.911,4.639-3.748c9.909-18.918,15.147-40.267,15.147-61.738c0-6.154-0.424-12.344-1.26-18.397
			c-0.568-4.103-4.363-6.971-8.458-6.405c-3.848,0.532-6.609,3.893-6.472,7.693c0.009,0.254,0.031,0.509,0.066,0.766
			c0.743,5.376,1.119,10.873,1.119,16.343c0,16.364-3.426,32.645-9.959,47.543l-10.409-6.339c-0.002-0.001-0.005-0.003-0.007-0.004
			l-82.156-50.026v-91.717v-16.643c0.094,0.012,0.188,0.021,0.282,0.034c0.275,0.037,0.549,0.083,0.824,0.123
			c1.019,0.145,2.038,0.299,3.051,0.471c0.407,0.069,0.813,0.147,1.219,0.22c0.881,0.159,1.762,0.324,2.639,0.503
			c0.447,0.091,0.893,0.188,1.339,0.284c0.84,0.181,1.678,0.371,2.513,0.571c0.451,0.108,0.901,0.217,1.35,0.33
			c0.839,0.211,1.676,0.433,2.509,0.663c0.429,0.118,0.859,0.234,1.286,0.357c0.885,0.254,1.766,0.523,2.644,0.798
			c0.365,0.114,0.731,0.223,1.095,0.341c1.076,0.348,2.147,0.715,3.212,1.094c0.158,0.056,0.319,0.107,0.477,0.164
			c1.251,0.451,2.495,0.924,3.731,1.418c0.157,0.063,0.311,0.131,0.468,0.195c1.046,0.423,2.087,0.859,3.121,1.313
			c0.36,0.158,0.716,0.324,1.074,0.486c0.828,0.373,1.654,0.752,2.476,1.144c0.412,0.198,0.822,0.402,1.232,0.604
			c0.762,0.376,1.521,0.758,2.276,1.15c0.426,0.222,0.851,0.447,1.275,0.674c0.739,0.396,1.474,0.801,2.206,1.213
			c0.416,0.235,0.832,0.469,1.245,0.708c0.749,0.434,1.492,0.881,2.232,1.332c0.38,0.232,0.762,0.46,1.14,0.696
			c0.825,0.516,1.642,1.048,2.457,1.586c0.28,0.185,0.563,0.363,0.841,0.55c1.099,0.74,2.19,1.496,3.267,2.275
			c0.15,0.108,0.295,0.223,0.444,0.332c0.949,0.693,1.894,1.393,2.82,2.113c0.11,0.085,0.215,0.175,0.325,0.261
			c0.959,0.75,1.912,1.51,2.846,2.288c0.079,0.065,0.154,0.135,0.233,0.2c0.96,0.804,1.912,1.618,2.845,2.451
			c0.004,0.004,0.008,0.008,0.013,0.012c12.097,10.791,21.861,23.941,28.667,38.661c0.567,1.227,1.114,2.465,1.639,3.713
			c0.024,0.056,0.054,0.108,0.079,0.163c0.117,0.26,0.248,0.508,0.389,0.749c0.042,0.071,0.084,0.14,0.128,0.208
			c0.361,0.568,0.79,1.074,1.273,1.512c0.055,0.05,0.111,0.099,0.167,0.147c0.498,0.426,1.047,0.783,1.633,1.064
			c0.062,0.03,0.124,0.059,0.187,0.087c0.597,0.267,1.227,0.455,1.877,0.56c0.063,0.01,0.126,0.02,0.19,0.028
			c1.283,0.173,2.626,0.024,3.904-0.515c3.818-1.608,5.61-6.008,4.002-9.826c-0.592-1.407-1.209-2.803-1.849-4.185
			c-3.802-8.226-8.427-16.013-13.782-23.259l24.162-31.921c3.124,1.101,6.48,1.708,9.977,1.708c7.215,0,13.843-2.554,19.033-6.803
			l42.778,24.093c-0.04,0.245-0.074,0.491-0.108,0.737c-0.018,0.13-0.033,0.259-0.05,0.389c-0.038,0.307-0.075,0.615-0.104,0.925
			c-0.022,0.23-0.036,0.46-0.053,0.69c-0.016,0.228-0.035,0.454-0.046,0.683c-0.023,0.475-0.036,0.951-0.036,1.428
			s0.013,0.953,0.036,1.428c0.011,0.229,0.03,0.456,0.046,0.683c0.017,0.23,0.031,0.46,0.053,0.69
			c0.029,0.31,0.066,0.618,0.104,0.925c0.016,0.13,0.032,0.26,0.05,0.39c0.051,0.371,0.11,0.739,0.174,1.106
			c0.008,0.047,0.017,0.094,0.025,0.141c0.628,3.474,1.853,6.741,3.567,9.693c0.033,0.057,0.065,0.114,0.098,0.171
			c0.165,0.279,0.335,0.555,0.508,0.829c0.094,0.148,0.188,0.296,0.284,0.443c0.131,0.199,0.263,0.395,0.398,0.591
			c0.158,0.229,0.319,0.455,0.484,0.68c0.089,0.122,0.178,0.243,0.269,0.363c0.231,0.307,0.47,0.609,0.713,0.907
			c0.035,0.043,0.069,0.086,0.104,0.129c0.087,0.105,0.169,0.213,0.258,0.317v40.283h-50.147c-4.144,0-7.502,3.358-7.502,7.502
			V367.47c0,4.144,3.358,7.502,7.502,7.502h50.147V405.627z M457.864,359.969H305.14v-93.553h152.724V359.969z"/>
	</g>
</g>
<g>
</g>
<g>
</g>
<g>
</g>
<g>
</g>
<g>
</g>
<g>
</g>
<g>
</g>
<g>
</g>
<g>
</g>
<g>
</g>
<g>
</g>
<g>
</g>
<g>
</g>
<g>
</g>
<g>
</g>
</svg>
