<svg height="438pt" viewBox="0 0 438 438.85714" width="438pt" xmlns="http://www.w3.org/2000/svg"><path d="m437.558594 204.9375c-1.714844-2.382812-4.476563-3.792969-7.414063-3.792969h-55.023437c14.070312-69.167969 7.640625-121.96875 7.496094-123.054687-.542969-4.035156-3.679688-7.234375-7.707032-7.839844-95.230468-14.277344-128.527344-45.042969-139.898437-62.117188-3.390625-5.097656-9.0625-8.132812-15.15625-8.132812-6.097657 0-11.765625 3.035156-15.160157 8.132812-11.371093 17.074219-44.664062 47.839844-139.894531 62.117188-4.027343.605469-7.167969 3.804688-7.707031 7.839844-.144531 1.082031-6.558594 53.894531 7.511719 123.054687h-55.035157c-2.9375 0-5.699218 1.410157-7.414062 3.792969-1.71875 2.382812-2.1875 5.457031-1.257812 8.242188l18.285156 54.855468c1.246094 3.734375 4.734375 6.25 8.671875 6.25h11.695312l16.203125 48.609375c1.246094 3.730469 4.738282 6.25 8.675782 6.25h49.472656c23.332031 38.445313 55.683594 75.953125 100.648437 108.015625 1.585938 1.132813 3.445313 1.695313 5.304688 1.695313 1.863281 0 3.71875-.5625 5.308593-1.695313 44.964844-32.0625 77.316407-69.570312 100.644532-108.015625h49.476562c3.9375 0 7.429688-2.519531 8.675782-6.25l16.203124-48.609375h11.691407c3.9375 0 7.429687-2.515625 8.675781-6.25l18.285156-54.855468c.929688-2.785157.460938-5.859376-1.257812-8.242188zm-391.414063 51.0625h-11.699219l-12.191406-36.570312h46.003906c3.089844 12.417968 6.726563 24.660156 10.882813 36.570312zm24.875 54.855469-12.195312-36.570313h27.199219c5.101562 12.617188 10.8125 24.859375 17.046874 36.570313zm148.835938 107.554687c-153.167969-113.367187-148.074219-294.167968-145.265625-331.179687 91.933594-15.007813 129.777344-45.625 145.210937-68.953125 15.542969 23.328125 53.386719 53.945312 145.320313 68.953125 2.808594 37.011719 7.902344 217.8125-145.265625 331.179687zm148.839843-107.554687h-32.058593c6.238281-11.703125 11.945312-23.945313 17.050781-36.570313h27.203125zm36.574219-54.855469h-44.703125c4.15625-11.917969 7.800782-24.152344 10.882813-36.570312h46.011719zm0 0"/><path d="m283.855469 141.714844v-9.144532c0-35.285156-28.707031-64-64-64-35.289063 0-64 28.714844-64 64v9.144532c-10.082031 0-18.285157 8.203125-18.285157 18.285156v109.714844c0 10.078125 8.203126 18.285156 18.285157 18.285156h128c10.085937 0 18.289062-8.207031 18.289062-18.285156v-109.714844c0-10.082031-8.203125-18.285156-18.289062-18.285156zm-109.710938-9.144532c0-25.203124 20.507813-45.714843 45.710938-45.714843 25.207031 0 45.714843 20.511719 45.714843 45.714843v9.144532h-91.425781zm-18.289062 137.144532v-109.714844h128l.011719 109.714844zm0 0"/></svg>