<svg height="512pt" viewBox="0 0 512.00118 512" width="512pt" xmlns="http://www.w3.org/2000/svg"><path d="m256 451.996094c-5.519531 0-10 4.480468-10 10 0 5.519531 4.480469 10 10 10s10-4.480469 10-10c0-5.519532-4.480469-10-10-10zm0 0"/><path d="m60.035156 284.460938 5.96875-6.105469v173.640625h-10c-16.542968 0-30 13.460937-30 30v20c0 5.523437 4.480469 10 10 10h439.996094c5.523438 0 10-4.476563 10-10v-20c0-16.539063-13.457031-30-30-30h-10v-173.640625l5.964844 6.097656c13.597656 13.933594 35.75 14.011719 49.496094.574219 13.726562-13.421875 14.183593-35.5625.558593-49.5l-56.019531-57.113282v-130.410156c0-5.523437-4.476562-10-10-10h-60c-5.519531 0-10 4.476563-10 10v48.855469l-84.964844-86.625c-6.355468-6.503906-15.480468-10.234375-25.03125-10.234375-9.554687 0-18.679687 3.730469-25.019531 10.21875l-221.011719 225.320312c-13.511718 13.820313-13.265625 35.964844.566406 49.488282 13.820313 13.523437 35.964844 13.273437 49.496094-.566406zm365.964844 167.535156h-130c-5.519531 0-10 4.476562-10 10 0 5.523437 4.480469 10 10 10h160c5.511719 0 10 4.488281 10 10v10h-419.996094v-10c0-5.511719 4.484375-10 10-10h159.996094c5.523438 0 10-4.476563 10-10 0-5.523438-4.476562-10-10-10h-129.996094v-194.089844l169.996094-173.832031 170 173.832031zm-40-393.996094h40v100.027344l-40-40.78125zm-361.738281 191.53125 221.011719-225.320312c2.617187-2.675782 6.527343-4.210938 10.730468-4.210938 4.199219 0 8.109375 1.535156 10.738282 4.226562l220.984374 225.292969c5.792969 5.921875 5.679688 15.410157-.25 21.207031-5.890624 5.761719-15.378906 5.722657-21.207031-.25l-203.117187-207.695312c-1.882813-1.925781-4.460938-3.007812-7.148438-3.007812-2.691406 0-5.269531 1.082031-7.152344 3.007812l-203.117187 207.695312c-5.875 6.011719-15.363281 5.976563-21.207031.25-5.945313-5.804687-6.027344-15.300781-.265625-21.195312zm0 0"/><path d="m247 245.289062v11.71875c-11.636719 4.128907-20 15.246094-20 28.28125 0 16.542969 13.460938 30 30 30 5.515625 0 10 4.484376 10 10 0 5.511719-4.484375 10-10 10-4.269531 0-8.882812-2.6875-12.984375-7.566406-3.554687-4.226562-9.863281-4.773437-14.089844-1.21875-4.226562 3.554688-4.769531 9.863282-1.21875 14.089844 5.347657 6.359375 11.632813 10.789062 18.292969 13.023438v11.671874c0 5.523438 4.480469 10 10 10 5.523438 0 10-4.476562 10-10v-11.71875c11.640625-4.128906 20-15.246093 20-28.28125 0-16.542968-13.457031-30-30-30-5.511719 0-10-4.484374-10-10 0-5.515624 4.488281-10 10-10 3.542969 0 7.28125 1.808594 10.816406 5.226563 3.96875 3.839844 10.300782 3.738281 14.140625-.230469 3.839844-3.96875 3.734375-10.300781-.230469-14.140625-5.078124-4.910156-10.15625-7.691406-14.726562-9.207031v-11.648438c0-5.519531-4.476562-10-10-10-5.519531 0-10 4.476563-10 10zm0 0"/><path d="m146.003906 306c0 60.652344 49.34375 109.996094 109.996094 109.996094 60.65625 0 110-49.34375 110-109.996094s-49.34375-110-110-110c-60.652344 0-109.996094 49.347656-109.996094 110zm199.996094 0c0 49.625-40.375 89.996094-90 89.996094s-89.996094-40.371094-89.996094-89.996094 40.371094-90 89.996094-90 90 40.375 90 90zm0 0"/></svg>